<svg width="207" height="30" viewBox="0 0 207 30" fill="none" xmlns="http://www.w3.org/2000/svg">
<g clip-path="url(#clip0_13_2720)">
<path d="M0 29.4592V0.508583H7.66132V21.9785H18.0006L15.6321 29.4592H0Z" fill="#231F20"/>
<path d="M16.6553 29.4592L26.5272 0.572966H34.9717L45.0016 29.4592H36.6329L35.6033 26.0987H25.8135L24.7714 29.4785L16.6553 29.4592ZM33.4749 18.9206L30.8284 10.1073L28.0684 18.9206H33.4749Z" fill="#231F20"/>
<path d="M45.3363 29.4399L49.347 0.412018H55.3472L60.5579 12.4828L65.6865 0.412018H72.0404L75.7921 29.4592H67.8213L66.5139 16.1009L60.4758 29.8262L54.7156 16.4228L53.2124 29.4399H45.3363Z" fill="#231F20"/>
<path d="M76.1269 29.4399V0.469959H86.7062C98.2329 0.469959 101.549 21.7146 83.984 21.7146V29.4399H76.1269ZM88.6768 10.809C88.6768 9.11588 87.6725 7.39056 83.984 7.39056V14.4721C88.2283 14.4721 88.6578 12.4378 88.6578 10.809H88.6768Z" fill="#231F20"/>
<path d="M126.478 29.485V0.515028H137.057C148.584 0.515028 151.9 21.7597 134.335 21.7597V29.485H126.478ZM139.028 10.8541C139.028 9.16739 138.024 7.43563 134.335 7.43563V14.5172C138.599 14.5107 139.028 12.4893 139.028 10.8541Z" fill="#231F20"/>
<path d="M147.163 29.4592V0.508583H154.824V21.9785H165.164L162.795 29.4592H147.163Z" fill="#231F20"/>
<path d="M96.4771 29.4399V21.7918C97.936 22.2747 102.793 23.324 102.793 20.4657C102.793 17.0086 96.5149 16.603 96.5149 9.48284C96.5149 0.869104 103.147 0.06438 106.621 0.06438C108.307 0.0632298 109.979 0.377448 111.553 0.99142V8.63949C110.257 7.86665 108.791 7.43726 107.29 7.39056C105.831 7.39056 104.65 8.15022 104.65 9.68241C104.65 12.9785 111.598 13.3004 111.598 20.7876C111.598 25.7382 107.922 30 101.65 30C99.9111 29.9978 98.1774 29.8101 96.4771 29.4399Z" fill="#231F20"/>
<path d="M186.796 29.3755V21.7275C188.255 22.2103 193.112 23.2597 193.112 20.4013C193.112 16.9442 186.834 16.5386 186.834 9.41846C186.834 0.804722 193.466 -2.5756e-06 196.94 -2.5756e-06C198.626 -0.0011528 200.298 0.313065 201.872 0.927038V8.56867C200.575 7.79783 199.11 7.37065 197.609 7.32618C196.15 7.32618 194.969 8.08584 194.969 9.61803C194.969 12.9142 201.917 13.2361 201.917 20.7232C201.917 25.6738 198.241 29.9356 191.969 29.9356C190.23 29.9366 188.496 29.7489 186.796 29.3755Z" fill="#231F20"/>
<path d="M165.713 0.412022H173.45V19.4807C173.45 23.3433 177.871 23.3433 177.871 19.4807V0.412022H185.609V21.2125C185.609 32.8841 165.713 32.8841 165.713 21.2511V0.412022Z" fill="#231F20"/>
<path d="M202.27 27.6309C202.27 27.197 202.396 26.7728 202.633 26.4119C202.869 26.0511 203.205 25.7697 203.598 25.6034C203.992 25.437 204.424 25.3932 204.842 25.4774C205.259 25.5615 205.643 25.77 205.945 26.0763C206.246 26.3827 206.452 26.7733 206.536 27.1987C206.619 27.6241 206.578 28.0653 206.416 28.4666C206.254 28.8678 205.979 29.2111 205.625 29.4531C205.272 29.6951 204.856 29.8249 204.43 29.8262C204.147 29.827 203.866 29.7709 203.604 29.6609C203.342 29.551 203.104 29.3894 202.903 29.1855C202.703 28.9815 202.543 28.7393 202.435 28.4725C202.326 28.2057 202.27 27.9197 202.27 27.6309ZM206.312 27.6309C206.312 27.2489 206.201 26.8755 205.993 26.5579C205.785 26.2403 205.489 25.9928 205.143 25.8466C204.797 25.7004 204.416 25.6622 204.048 25.7367C203.68 25.8112 203.343 25.9951 203.078 26.2652C202.813 26.5353 202.632 26.8795 202.559 27.2541C202.486 27.6288 202.524 28.0171 202.667 28.37C202.811 28.7229 203.053 29.0245 203.365 29.2368C203.677 29.449 204.043 29.5622 204.418 29.5622C204.92 29.5622 205.402 29.3588 205.758 28.9966C206.113 28.6344 206.312 28.1431 206.312 27.6309ZM205.498 28.8605H205.15L204.462 27.7275H203.919V28.8605H203.628V26.4077H204.677C204.88 26.3932 205.083 26.4355 205.264 26.5301C205.349 26.5874 205.418 26.6662 205.464 26.7586C205.511 26.8511 205.533 26.9541 205.529 27.0579C205.529 27.5408 205.201 27.7017 204.771 27.7017L205.498 28.8605ZM204.373 27.4893C204.708 27.4893 205.232 27.5472 205.232 27.0515C205.232 26.6717 204.904 26.6266 204.601 26.6266H203.912V27.4893H204.373Z" fill="#231F20"/>
</g>
<defs>
<clipPath id="clip0_13_2720">
<rect width="206.571" height="30" fill="white"/>
</clipPath>
</defs>
</svg>
