<svg width="287" height="30" viewBox="0 0 287 30" fill="none" xmlns="http://www.w3.org/2000/svg">
<g clip-path="url(#clip0_37_3940)">
<path d="M0 29.1348V0.850578H7.62588V21.8266H17.9257L15.5646 29.1348H0Z" fill="#231F20"/>
<path d="M16.5912 29.1348L26.4168 0.914127H34.8297L44.8118 29.1396H36.5015L35.4603 25.8449H25.6836L24.6423 29.1494L16.5912 29.1348ZM33.3339 18.8349L30.7039 10.2265L27.9518 18.8349H33.3339Z" fill="#231F20"/>
<path d="M45.1491 29.1152L49.138 0.752811H55.1165L60.3031 12.5485L65.4114 0.752811H71.7419L75.4766 29.1348H67.5379L66.2376 16.0877L60.2249 29.4916L54.4859 16.4005L52.9901 29.1152H45.1491Z" fill="#231F20"/>
<path d="M75.7895 29.1103V0.806583H86.3239C97.8067 0.806583 101.106 21.5627 83.6158 21.5627V29.1103H75.7895ZM88.294 10.9109C88.294 9.2586 87.3163 7.56722 83.6158 7.56722V14.4843C87.8589 14.4843 88.294 12.4996 88.294 10.9109Z" fill="#231F20"/>
<path d="M125.954 29.1592V0.855469H136.489C147.966 0.855469 151.266 21.6115 133.775 21.6115V29.1592H125.954ZM138.454 10.9549C138.454 9.30748 137.452 7.6161 133.775 7.6161V14.5332C138.028 14.5332 138.454 12.5485 138.454 10.9549Z" fill="#231F20"/>
<path d="M146.554 29.1348V0.850578H154.18V21.8266H164.474L162.118 29.1348H146.554Z" fill="#231F20"/>
<path d="M96.0763 29.1103V21.6409C97.5428 22.1297 102.368 23.1367 102.368 20.3454C102.368 16.9627 96.1154 16.5716 96.1154 9.59101C96.1154 1.1781 102.72 0.395958 106.181 0.395958C107.851 0.399056 109.507 0.703766 111.069 1.29542V8.78442C109.776 8.03233 108.316 7.61401 106.821 7.56722C105.354 7.56722 104.191 8.31514 104.191 9.81098C104.191 13.0324 111.108 13.3453 111.108 20.6583C111.108 25.4929 107.452 29.6627 101.199 29.6627C99.477 29.6589 97.7598 29.4738 96.0763 29.1103Z" fill="#231F20"/>
<path d="M186.018 29.0468V21.5773C187.484 22.0662 192.309 23.0732 192.309 20.2819C192.309 16.8991 186.057 16.5081 186.057 9.52746C186.057 1.11455 192.661 0.332411 196.122 0.332411C197.801 0.330837 199.466 0.637361 201.035 1.23676V8.73554C199.745 7.98022 198.286 7.56007 196.792 7.51344C195.325 7.51344 194.157 8.26137 194.157 9.75721C194.157 12.9787 201.074 13.2915 201.074 20.6045C201.074 25.4391 197.417 29.6089 191.17 29.6089C189.437 29.6033 187.71 29.4149 186.018 29.0468Z" fill="#231F20"/>
<path d="M165.027 0.752811H172.736V19.3824C172.736 23.1563 177.135 23.1563 177.135 19.3824V0.752811H184.84V21.0738C184.84 32.4735 165.027 32.4735 165.027 21.1129V0.752811Z" fill="#231F20"/>
<path d="M203.274 2.71305C203.276 2.17536 203.437 1.65029 203.737 1.20402C204.036 0.757754 204.462 0.410281 204.959 0.20541C205.456 0.000538079 206.003 -0.0525588 206.53 0.0528136C207.057 0.158186 207.542 0.41731 207.922 0.797515C208.302 1.17772 208.561 1.66198 208.666 2.18925C208.772 2.71651 208.719 3.26317 208.514 3.7603C208.309 4.25743 207.961 4.68278 207.515 4.98271C207.069 5.28264 206.544 5.44372 206.006 5.44566C205.647 5.44695 205.291 5.37715 204.959 5.24028C204.627 5.10341 204.325 4.90218 204.071 4.64818C203.817 4.39417 203.616 4.09242 203.479 3.7603C203.342 3.42818 203.272 3.07226 203.274 2.71305ZM208.392 2.71305C208.389 2.2407 208.246 1.77979 207.981 1.38852C207.717 0.997248 207.342 0.693149 206.905 0.514616C206.468 0.336083 205.987 0.29112 205.524 0.385401C205.061 0.479682 204.637 0.708982 204.304 1.04435C203.972 1.37972 203.746 1.80613 203.655 2.26974C203.565 2.73335 203.614 3.21338 203.796 3.64923C203.978 4.08509 204.285 4.45722 204.678 4.71865C205.072 4.98008 205.534 5.11909 206.006 5.11813C206.321 5.1175 206.632 5.05471 206.923 4.93338C207.213 4.81204 207.477 4.63455 207.699 4.41109C207.92 4.18763 208.095 3.92259 208.214 3.6312C208.333 3.3398 208.394 3.02779 208.392 2.71305ZM207.36 4.23823H206.915L206.05 2.83526H205.361V4.23823H204.999V1.19765H206.324C206.58 1.1775 206.837 1.22823 207.067 1.3443C207.175 1.41509 207.263 1.51262 207.322 1.62741C207.381 1.7422 207.409 1.87034 207.404 1.99935C207.404 2.60062 206.984 2.8206 206.427 2.83526L207.36 4.23823ZM205.933 2.54196C206.363 2.54196 207.023 2.61528 207.023 1.99446C207.023 1.50562 206.612 1.46651 206.231 1.46651H205.361V2.54196H205.933Z" fill="#231F20"/>
<path d="M217.064 5.58742H224.255C228.591 5.58742 231.445 7.88985 231.445 11.6783V11.7321C231.445 15.8775 227.975 18.0235 223.898 18.0235H219.234V24.7939H217.064V5.58742ZM223.981 16.0681C227.163 16.0681 229.246 14.367 229.246 11.8397V11.7859C229.246 9.04351 227.188 7.6161 224.088 7.6161H219.234V16.0681H223.981Z" fill="black"/>
<path d="M233.753 5.58742H242.009C244.37 5.58742 246.267 6.30113 247.469 7.50856C248.44 8.52551 248.968 9.88643 248.936 11.2922V11.3508C248.936 14.5332 246.741 16.4005 243.725 16.948L249.625 24.7694H246.961L241.408 17.3342H235.918V24.7939H233.753V5.58742ZM241.818 15.3642C244.698 15.3642 246.756 13.8977 246.756 11.4144V11.3753C246.756 9.01907 244.947 7.59166 241.867 7.59166H235.918V15.3837L241.818 15.3642Z" fill="black"/>
<path d="M251.097 15.2469V15.1882C251.097 9.89408 255.076 5.25501 260.917 5.25501C266.759 5.25501 270.694 9.84031 270.694 15.1344V15.1882C270.694 20.4872 266.715 25.1263 260.869 25.1263C255.022 25.1263 251.097 20.541 251.097 15.2469ZM268.441 15.2469V15.1882C268.441 10.8278 265.258 7.25925 260.864 7.25925C256.469 7.25925 253.345 10.774 253.345 15.1344V15.1882C253.345 19.5535 256.528 23.122 260.917 23.122C265.307 23.122 268.441 19.6073 268.441 15.2469Z" fill="black"/>
<path d="M272.229 21.9977L273.573 20.4041C275.578 22.2177 277.484 23.122 280.158 23.122C282.739 23.122 284.44 21.7484 284.44 19.8566V19.8028C284.44 18.0186 283.463 17.0018 279.444 16.1512C275.045 15.1735 272.997 13.7657 272.997 10.6078V10.554C272.997 7.533 275.661 5.31367 279.303 5.31367C281.767 5.24314 284.17 6.0838 286.053 7.67476L284.792 9.34659C283.258 8.00799 281.29 7.27003 279.254 7.26902C276.756 7.26902 275.167 8.64266 275.167 10.3731V10.4269C275.167 12.2356 276.145 13.2524 280.378 14.1568C284.611 15.0611 286.635 16.6449 286.635 19.5829V19.6366C286.635 22.9265 283.893 25.0725 280.08 25.0725C277.163 25.1047 274.348 24.0022 272.229 21.9977Z" fill="black"/>
<path d="M286.635 29.2619H217.034V30H286.635V29.2619Z" fill="black"/>
<path d="M286.635 0.386181H217.034V1.12433H286.635V0.386181Z" fill="black"/>
</g>
<defs>
<clipPath id="clip0_37_3940">
<rect width="286.635" height="30" fill="white"/>
</clipPath>
</defs>
</svg>
